<svg width="100" height="100" viewBox="0 0 26.458 26.458" xmlns="http://www.w3.org/2000/svg"><path style="fill:#b8b8b8;fill-opacity:.2916227;stroke:none;stroke-width:.264583px;stroke-linecap:butt;stroke-linejoin:miter;stroke-opacity:1" d="M23.11 23.37c-1.798 1.966-3.381 2.612-4.787 2.315-1.405-.296-3.711-.844-3.792-2.502-.08-1.657.28-2.844 1.475-3.547 1.197-.703 2.738-.284 3.4-.216.662.07 1.407 1.424 2.674 1.219 1.266-.205 1.867-.28 2.32.286l.455.565s.754.813-.23 1.326c-.983.514-1.516.554-1.516.554zm-15.035-.364c-1.248 1.353-1.564 1.697-2.564 1.558-1-.14-2.264-1.035-2.472-2.38-.208-1.346 2.072-1.244 2.56-2.09.486-.846.927-1.437.755-1.94-.172-.504.265-.535.963-.638.699-.104 1.464-.095 1.499.671.035.766.035.791.035.791s-.39.703-.836 1.538c-.448.834-.482.987-.482.987s.37-.118.658.408c.288.527-.116 1.095-.116 1.095zM22.715 9.49c.523 1.596 1.124 2.558.104 3.713-1.02 1.155-1.954 1.618-3.557 1.688-1.604.07-3.877-.175-4.433-.718-.556-.543.443-2.045.573-3.201.13-1.156 3.174-1.049 2.403-3.116-.772-2.066-1.545-2.766-.01-3.29 1.534-.523 2.166-.891 2.999-.103.833.787-.118 2.562-.245 3.044-.126.483-.126.58-.126.58s.715.889 1.513 1.201c.799.312.779.202.779.202z"/><path style="fill:#b8b8b8;fill-opacity:.2916227;stroke:none;stroke-width:.264583px;stroke-linecap:butt;stroke-linejoin:miter;stroke-opacity:1" d="M12.972 14.77c1.463.755 1.06 1.347 3.102 1.138 2.042-.208 2.867-.667 2.9.306.033.973.762 1.63-.62 1.734-1.383.105-2.067.105-3.009-.453-.941-.558-1.378-1.236-2.247.076-.869 1.313-.365 2.074-1.46 2.483-1.096.41-1.853-.144-1.923-.939-.069-.795.873-2.59.386-3.251-.488-.662-1.201-1.377-1.408-1.86-.207-.483.367-1.3.576-1.75.208-.45.772-.202 1.704-.167.932.035 1.63.497 1.525 1.402-.104.904.474 1.281.474 1.281zm-6.001.242c.173 1.005.577.892-.47 1.412-1.045.52-2.149-.345-2.703.828-.554 1.172-.356 2.05-1.354 1.676-.999-.373-1.727-2.085-1.866-2.81-.14-.725.341-1.158.864-2.098.522-.94.549-.661 2.337-1.09 1.787-.428 2.636-1.436 3.212-1.503.576-.067.576-.137.75.003.175.14.865 1.025-.067 1.574-.933.55-.703 2.008-.703 2.008zm5.534-6.356c.442-1.39.049-2.276 1.616-2.52 1.567-.244 1.622-.677 1.691-1.967.07-1.29-.981-2.19-1.6-2.57-.618-.381-1.128-.276-2.174.77-1.046 1.045-1.466 1.248-.595 2.119.871.871 1.64 1.494.594 2.191-1.046.698-1.625 1.201-1.116 1.642.51.44.539.469.539.469zm1.513 3.038c-.05.437-.444 1.004-.9.523-.456-.48-.48-.53-.48-.53s-.071-.626.495-.923c.566-.296.773-.429.945-.027.173.402-.06.957-.06.957zm2.334-2.739c.172-.6.396-.8.025-1.117-.372-.318-.402-.854-1.078-.219-.675.635-.944.624-.957 1.37-.013.747.282.89.702.606.419-.284 1.308-.64 1.308-.64zm-3.879 16.292c.558-.743.858-1.111.612-1.936-.246-.824-.508-1.191-.927-1.366a4.158 4.158 0 0 0-.576-.21s-.384-2.33-1.15 0c-.766 2.333-1.146 2.87-1.76 3.5-.616.631-.478.747.656.923 1.134.176 1.822-.828 2.335-.828.513 0 .81-.083.81-.083zM9.042 9.737c-1.008-.202-1.61-1.15-2.944-.02-1.335 1.13-1.854 1.772-2.666 1.328-.813-.443-.641-1.588-.79-2.819-.147-1.23.02-.831 1.024-1.717 1.005-.885 1.91-.082 2.902.496.993.577 2.056.058 2.154-.632l.1-.69s.478 1.934.79 2.684c.311.749-.57 1.37-.57 1.37z"/><path style="fill:#b8b8b8;fill-opacity:.2916227;stroke:none;stroke-width:.264583px;stroke-linecap:butt;stroke-linejoin:miter;stroke-opacity:1" d="M1.73 8.538C1.26 7.35 1.48 6.265.867 5.674l-.633-.607s-.389-.29.894-.859c1.283-.567 2.211-.624 2.063-1.45-.148-.827.55-.997 1.141-.257s1.867 1.461.367 1.87c-1.501.407-2.38.006-2.553 1.113-.172 1.107-.414 3.054-.414 3.054zm5.571-3.97c1.417-.687 2.601-.982 2.133-2.14C8.965 1.267 9.32.952 8.4 1.401c-.92.448-1.997.743-2.364.765l-.367.023s.397.903.864 1.588c.467.686.768.79.768.79zm19.061 14.27c.276-1.432.152-3.122.004-3.589-.147-.466.221-4.156-.719-2.421-.94 1.735-1.47 3.364-2.309 2.575-.838-.788-1.298.91-.985 1.39.313.48 1.092 1.7 2.201 1.577 1.11-.123 1.808.468 1.808.468zM22.876 7.48c.5.1.897-.098 1.008-.565.11-.467-.013-.633-.446-.967-.433-.334-.687-.203-1.041-.096-.354.108-1.033.74-.403.987.63.247.882.641.882.641zm1.38-4.067c1.358-.443 1.756-.245 1.383-1.215-.374-.97.363-.292-1.836-.654-2.2-.362-2.335-.742-3.017-.362-.681.38-1.508-.27-.706.7.803.969 1.247.86 2.074.745.826-.115 1.15.278 1.501.45.351.171.601.336.601.336z"/></svg>