<svg width="100" height="100" viewBox="0 0 26.458 26.458" xmlns="http://www.w3.org/2000/svg"><path style="fill:#f9f9f9;fill-opacity:.731041;stroke:none;stroke-width:.264583px;stroke-linecap:butt;stroke-linejoin:miter;stroke-opacity:1" d="M3.595 3.833c1.797-1.967 3.38-2.612 4.786-2.315 1.405.296 3.711.844 3.792 2.502.08 1.657-.28 2.844-1.476 3.547-1.196.703-2.737.284-3.399.215-.662-.068-1.407-1.423-2.674-1.218-1.266.205-1.867.28-2.32-.286l-.455-.565s-.754-.813.23-1.326c.983-.514 1.516-.554 1.516-.554zm15.034.364c1.248-1.353 1.564-1.698 2.564-1.558 1 .14 2.264 1.035 2.472 2.38.208 1.346-2.072 1.244-2.56 2.09-.486.846-.927 1.437-.755 1.94.172.504-.265.535-.963.638-.699.103-1.464.095-1.499-.671-.035-.766-.035-.791-.035-.791s.39-.703.836-1.538c.448-.834.482-.987.482-.987s-.37.118-.658-.408c-.288-.527.116-1.095.116-1.095zM3.989 17.713c-.523-1.596-1.124-2.559-.105-3.713 1.02-1.155 1.955-1.618 3.558-1.688 1.603-.07 3.877.175 4.433.718.555.543-.443 2.045-.573 3.201-.13 1.156-3.174 1.049-2.403 3.116.772 2.066 1.545 2.766.01 3.29-1.534.523-2.166.891-2.999.103-.833-.787.118-2.562.244-3.044.127-.483.127-.58.127-.58s-.715-.889-1.513-1.201c-.799-.313-.779-.202-.779-.202z"/><path style="fill:#f9f9f9;fill-opacity:.731041;stroke:none;stroke-width:.264583px;stroke-linecap:butt;stroke-linejoin:miter;stroke-opacity:1" d="M13.732 12.433c-1.463-.755-1.06-1.347-3.102-1.138-2.042.208-2.867.667-2.9-.306-.033-.973-.762-1.63.62-1.734 1.383-.105 2.067-.105 3.009.453.94.558 1.378 1.236 2.247-.076.869-1.313.365-2.074 1.46-2.483 1.096-.41 1.853.144 1.923.939.069.795-.873 2.59-.386 3.251.488.662 1.201 1.377 1.408 1.86.207.483-.367 1.3-.576 1.75-.209.45-.772.202-1.704.167-.932-.035-1.63-.497-1.525-1.402.104-.904-.474-1.281-.474-1.281zm6-.242c-.172-1.005-.576-.892.47-1.412 1.046-.52 2.15.345 2.704-.828.553-1.172.356-2.05 1.354-1.676.999.373 1.727 2.085 1.866 2.81.14.725-.341 1.158-.864 2.098-.522.94-.55.661-2.337 1.09-1.787.428-2.636 1.436-3.212 1.503-.577.067-.577.136-.75-.003-.175-.14-.865-1.025.067-1.574.933-.55.702-2.008.702-2.008zm-5.533 6.356c-.442 1.39-.05 2.276-1.616 2.52-1.567.244-1.622.677-1.692 1.967-.07 1.29.982 2.19 1.6 2.57.619.381 1.128.276 2.174-.77 1.046-1.045 1.467-1.248.596-2.119-.871-.871-1.64-1.494-.594-2.191 1.046-.698 1.625-1.201 1.116-1.642-.51-.44-.539-.469-.539-.469zm-1.513-3.038c.05-.437.443-1.004.9-.523.456.48.48.53.48.53s.071.626-.495.923c-.566.296-.773.429-.946.027-.172-.402.061-.957.061-.957zm-2.334 2.739c-.173.6-.396.8-.025 1.117.372.318.402.854 1.077.219.676-.635.945-.624.958-1.37.013-.747-.283-.89-.702-.606-.419.284-1.308.64-1.308.64zM14.23 1.956c-.557.743-.857 1.111-.611 1.936.246.824.508 1.191.927 1.366.419.174.575.21.575.21s.385 2.33 1.15 0c.767-2.333 1.146-2.87 1.762-3.5.615-.631.477-.747-.657-.923-1.134-.176-1.822.828-2.335.828-.513 0-.81.083-.81.083zm3.431 15.51c1.01.202 1.61 1.15 2.945.02 1.334-1.13 1.854-1.772 2.666-1.328.813.443.641 1.588.789 2.818.148 1.23-.019.832-1.023 1.718-1.005.885-1.91.082-2.903-.496-.992-.577-2.055-.058-2.154.632l-.098.69s-.48-1.934-.79-2.684c-.313-.749.568-1.37.568-1.37z"/><path style="fill:#f9f9f9;fill-opacity:.731041;stroke:none;stroke-width:.264583px;stroke-linecap:butt;stroke-linejoin:miter;stroke-opacity:1" d="M24.973 18.665c.471 1.189.25 2.273.865 2.864l.633.607s.389.29-.894.859c-1.283.567-2.212.624-2.064 1.45.148.827-.55.997-1.14.257-.591-.74-1.867-1.461-.367-1.87 1.501-.407 2.38-.006 2.553-1.113.172-1.107.414-3.054.414-3.054zm-5.57 3.97c-1.417.687-2.601.982-2.133 2.14.469 1.16.113 1.475 1.034 1.026.92-.448 1.997-.743 2.364-.765l.367-.023s-.397-.903-.864-1.588c-.467-.686-.768-.79-.768-.79zM.342 8.365C.066 9.797.19 11.487.337 11.954c.148.466-.22 4.155.72 2.42.94-1.734 1.47-3.363 2.308-2.574.839.788 1.299-.91.986-1.39-.313-.48-1.092-1.7-2.201-1.577-1.11.123-1.808-.468-1.808-.468zm3.486 11.358c-.5-.1-.897.098-1.008.565-.11.467.013.633.446.967.433.334.687.203 1.04.096.355-.108 1.034-.74.404-.987s-.882-.641-.882-.641zm-1.38 4.067c-1.358.443-1.756.245-1.383 1.215.374.97-.363.292 1.836.654 2.2.362 2.335.742 3.017.362.681-.38 1.508.27.705-.7-.802-.97-1.247-.86-2.073-.745-.826.115-1.15-.278-1.501-.45s-.601-.336-.601-.336z"/></svg>