<svg width="100" height="100" viewBox="0 0 26.458 26.458" xmlns="http://www.w3.org/2000/svg"><path style="fill:#bdbdbd;fill-opacity:.72682661;stroke:none;stroke-width:.264583px;stroke-linecap:butt;stroke-linejoin:miter;stroke-opacity:1" d="M2.627 16.8c.593.907 1.385 1.04.587 1.728-.797.688-.524.953-1.343.213-.818-.74-1.077-1.008-.537-1.632.54-.624 1.293-.309 1.293-.309ZM21.474 3.717c.137 1.094.091 1.578-.598 1.255-.69-.322-1.177-.696-1.056-1.093.12-.398.32-.391.727-.333.406.058.927.17.927.17zM12.143 24.32c.367.56.998.535.363 1.143s-.95.674-1.342.377c-.393-.296-.316-1.031-.287-1.49.03-.457.171-.555.697-.503.525.053.724.289.648.4-.076.11-.079.073-.079.073zm13.004-5.442c.332.47.142 1.015-.227 1.068-.37.053-.705-.39-.855-.583-.15-.192-.13-.505.133-.817.261-.312.732-.284.938-.102.205.183.011.434.011.434zM14.584.861c.49.997 2.162.092.301 1.488-1.86 1.396-2.593 1.69-2.232.7.36-.99 1.488-1.033 1.14-1.627-.347-.594-.059-1.135.27-1.098.33.038.521.537.521.537zM3.47 8.732c.16.232 1.233 1.676.51 2.1-.722.425-1.178.393-1.523-.204-.345-.598-.457-.718-.876-.902-.42-.185.717-1.253 1.052-1.519.335-.265.27-.3.366-.257.096.044.471.782.471.782Zm12.69 5.012c.325.641.845.253.692 1.153-.154.9-.467 1.432-.849 1.3-.382-.13-.935-.679-1.194-1.202-.259-.522-.475-.896-.006-1.18.469-.285.857-.194 1.025-.222.169-.027.332.151.332.151zm1.973 8.3c.609.526 1.003.173.869 1.025-.135.853-.551.877-.702.666-.15-.212-.638-1.292-.646-1.429-.009-.136.479-.262.479-.262z"/></svg>