<?xml version="1.0" encoding="UTF-8" standalone="no"?>
<!-- Created with Inkscape (http://www.inkscape.org/) -->

<svg
   width="100"
   height="100"
   viewBox="0 0 26.458332 26.458334"
   version="1.1"
   id="svg8348"
   inkscape:version="1.2.1 (9c6d41e410, 2022-07-14)"
   sodipodi:docname="clouds_M.svg"
   xmlns:inkscape="http://www.inkscape.org/namespaces/inkscape"
   xmlns:sodipodi="http://sodipodi.sourceforge.net/DTD/sodipodi-0.dtd"
   xmlns="http://www.w3.org/2000/svg"
   xmlns:svg="http://www.w3.org/2000/svg">
  <sodipodi:namedview
     id="namedview8350"
     pagecolor="#dddddd"
     bordercolor="#666666"
     borderopacity="1.0"
     inkscape:showpageshadow="2"
     inkscape:pageopacity="0"
     inkscape:pagecheckerboard="true"
     inkscape:deskcolor="#c5c5c5"
     inkscape:document-units="mm"
     showgrid="true"
     inkscape:zoom="5.3664983"
     inkscape:cx="54.411645"
     inkscape:cy="61.678954"
     inkscape:window-width="1920"
     inkscape:window-height="1014"
     inkscape:window-x="0"
     inkscape:window-y="0"
     inkscape:window-maximized="1"
     inkscape:current-layer="layer1">
    <inkscape:grid
       type="xygrid"
       id="grid10284"
       originx="0"
       originy="0" />
  </sodipodi:namedview>
  <defs
     id="defs8345" />
  <g
     inkscape:label="Layer 1"
     inkscape:groupmode="layer"
     id="layer1">
    <path
       style="fill:#bdbdbd;fill-opacity:0.72682661;stroke:none;stroke-width:0.264583px;stroke-linecap:butt;stroke-linejoin:miter;stroke-opacity:1"
       d="m 2.6273755,16.800352 c 0.5927129,0.906809 1.3841255,1.040202 0.5867742,1.727939 -0.7973522,0.687737 -0.5246381,0.95248 -1.3430983,0.212587 C 1.0525925,18.000986 0.79407988,17.733493 1.333629,17.109203 1.8731768,16.484914 2.6273755,16.800352 2.6273755,16.800352 Z"
       id="path32561" />
    <path
       style="fill:#bdbdbd;fill-opacity:0.72682661;stroke:none;stroke-width:0.264583px;stroke-linecap:butt;stroke-linejoin:miter;stroke-opacity:1"
       d="m 21.474206,3.7167062 c 0.136803,1.094482 0.09116,1.578115 -0.598198,1.25568 -0.689353,-0.322435 -1.176535,-0.696571 -1.05612,-1.093877 0.120414,-0.397305 0.319956,-0.390643 0.726637,-0.332565 0.406682,0.05808 0.927681,0.170762 0.927681,0.170762 z"
       id="path32563" />
    <path
       style="fill:#bdbdbd;fill-opacity:0.72682661;stroke:none;stroke-width:0.264583px;stroke-linecap:butt;stroke-linejoin:miter;stroke-opacity:1"
       d="m 12.143316,24.320495 c 0.366606,0.5598 0.997347,0.534512 0.362415,1.142623 -0.634932,0.608112 -0.949081,0.673672 -1.341741,0.377052 -0.392658,-0.29662 -0.315629,-1.031492 -0.286765,-1.489317 0.02886,-0.457824 0.17077,-0.556029 0.696435,-0.503354 0.525665,0.05268 0.724605,0.288166 0.648437,0.399051 -0.07617,0.110884 -0.07878,0.07395 -0.07878,0.07394 z"
       id="path32565" />
    <path
       style="fill:#bdbdbd;fill-opacity:0.72682661;stroke:none;stroke-width:0.264583px;stroke-linecap:butt;stroke-linejoin:miter;stroke-opacity:1"
       d="m 25.14724,18.878368 c 0.331336,0.469303 0.142113,1.014208 -0.227233,1.067371 -0.369346,0.05316 -0.705154,-0.390522 -0.855464,-0.582777 -0.150311,-0.192255 -0.12875,-0.505441 0.133003,-0.817272 0.261754,-0.311831 0.732676,-0.283295 0.937956,-0.101234 0.205281,0.182062 0.01174,0.433912 0.01174,0.433912 z"
       id="path32567" />
    <path
       style="fill:#bdbdbd;fill-opacity:0.72682661;stroke:none;stroke-width:0.264583px;stroke-linecap:butt;stroke-linejoin:miter;stroke-opacity:1"
       d="m 14.58419,0.86095264 c 0.490465,0.99741996 2.161481,0.091924 0.301164,1.48804386 -1.860317,1.3961203 -2.593303,1.6896055 -2.232826,0.6999762 0.360476,-0.9896292 1.488266,-1.0330991 1.140655,-1.6270903 -0.347616,-0.59398756 -0.05886,-1.13519277 0.270379,-1.09772717 0.329241,0.037466 0.520628,0.53679741 0.520628,0.53679741 z"
       id="path32569" />
    <path
       style="fill:#bdbdbd;fill-opacity:0.72682661;stroke:none;stroke-width:0.264583px;stroke-linecap:butt;stroke-linejoin:miter;stroke-opacity:1"
       d="m 3.470499,8.7324389 c 0.1595854,0.23193 1.232724,1.6760081 0.51008,2.1004541 C 3.2579556,11.257375 2.8015957,11.224872 2.4569803,10.627595 2.1123649,10.030318 1.9996835,9.910074 1.5806953,9.7257248 1.1617036,9.5413779 2.2981329,8.4727953 2.6329654,8.2073721 2.9677963,7.9419463 2.9030354,7.9066211 2.999262,7.9504185 3.095491,7.9942115 3.4704984,8.7324438 3.4704984,8.7324438 Z"
       id="path33337" />
    <path
       style="fill:#bdbdbd;fill-opacity:0.72682661;stroke:none;stroke-width:0.264583px;stroke-linecap:butt;stroke-linejoin:miter;stroke-opacity:1"
       d="m 16.1604,13.744322 c 0.324708,0.640794 0.845013,0.252221 0.691295,1.152389 -0.153718,0.900168 -0.4664,1.432559 -0.848303,1.301186 -0.381902,-0.131373 -0.935398,-0.679938 -1.194401,-1.202498 -0.259004,-0.522562 -0.474584,-0.896344 -0.0058,-1.181044 0.468752,-0.284699 0.856614,-0.193848 1.025035,-0.220869 0.168421,-0.02702 0.332207,0.150836 0.332207,0.150836 z"
       id="path33339" />
    <path
       style="fill:#bdbdbd;fill-opacity:0.72682661;stroke:none;stroke-width:0.264583px;stroke-linecap:butt;stroke-linejoin:miter;stroke-opacity:1"
       d="m 18.132852,22.043612 c 0.608836,0.526455 1.003117,0.173337 0.868667,1.025799 -0.13445,0.852461 -0.550542,0.876703 -0.701166,0.665117 -0.150623,-0.211586 -0.638156,-1.291258 -0.646669,-1.428111 -0.0085,-0.136852 0.479168,-0.262805 0.479168,-0.262805 z"
       id="path33341" />
  </g>
</svg>
