<?xml version="1.0" encoding="UTF-8" standalone="no"?>
<!-- Created with Inkscape (http://www.inkscape.org/) -->

<svg
   width="100"
   height="100"
   viewBox="0 0 26.458332 26.458334"
   version="1.1"
   id="svg8348"
   inkscape:version="1.2.1 (9c6d41e410, 2022-07-14)"
   sodipodi:docname="clouds_D.svg"
   xmlns:inkscape="http://www.inkscape.org/namespaces/inkscape"
   xmlns:sodipodi="http://sodipodi.sourceforge.net/DTD/sodipodi-0.dtd"
   xmlns="http://www.w3.org/2000/svg"
   xmlns:svg="http://www.w3.org/2000/svg">
  <sodipodi:namedview
     id="namedview8350"
     pagecolor="#dddddd"
     bordercolor="#666666"
     borderopacity="1.0"
     inkscape:showpageshadow="2"
     inkscape:pageopacity="0"
     inkscape:pagecheckerboard="true"
     inkscape:deskcolor="#c5c5c5"
     inkscape:document-units="mm"
     showgrid="true"
     inkscape:zoom="5.3664983"
     inkscape:cx="22.547291"
     inkscape:cy="47.144336"
     inkscape:window-width="1920"
     inkscape:window-height="1014"
     inkscape:window-x="0"
     inkscape:window-y="0"
     inkscape:window-maximized="1"
     inkscape:current-layer="layer1">
    <inkscape:grid
       type="xygrid"
       id="grid10284"
       originx="0"
       originy="0" />
  </sodipodi:namedview>
  <defs
     id="defs8345" />
  <g
     inkscape:label="Layer 1"
     inkscape:groupmode="layer"
     id="layer1">
    <path
       style="fill:#b8b8b8;fill-opacity:0.2916227;stroke:none;stroke-width:0.264583px;stroke-linecap:butt;stroke-linejoin:miter;stroke-opacity:1"
       d="m 23.109143,23.369595 c -1.797453,1.966862 -3.380421,2.611952 -4.785945,2.315622 -1.405524,-0.29633 -3.711613,-0.844459 -3.792096,-2.501917 -0.08048,-1.657459 0.279307,-2.844005 1.475385,-3.546971 1.196077,-0.702966 2.737101,-0.284754 3.39935,-0.215847 0.662248,0.06891 1.40743,1.4235 2.673914,1.218276 1.266483,-0.205225 1.866769,-0.279172 2.320796,0.28598 0.454028,0.565151 0.454028,0.565151 0.454028,0.565151 0,0 0.754715,0.812864 -0.228921,1.326267 -0.983635,0.513402 -1.516511,0.553439 -1.516511,0.553439 z"
       id="path21629" />
    <path
       style="fill:#b8b8b8;fill-opacity:0.2916227;stroke:none;stroke-width:0.264583px;stroke-linecap:butt;stroke-linejoin:miter;stroke-opacity:1"
       d="m 8.0753057,23.005856 c -1.248236,1.352685 -1.563903,1.697632 -2.564153,1.558183 -1.000249,-0.13945 -2.263872,-1.035385 -2.472093,-2.380716 -0.208221,-1.345333 2.072266,-1.243742 2.559249,-2.089698 0.486984,-0.845956 0.927938,-1.436301 0.755669,-1.940035 -0.172269,-0.503733 0.264872,-0.534646 0.963344,-0.637871 0.698472,-0.103226 1.463673,-0.09492 1.498536,0.671372 0.03486,0.766291 0.03486,0.791212 0.03486,0.791212 0,0 -0.388933,0.70283 -0.836151,1.537347 -0.447219,0.834517 -0.481536,0.987721 -0.481536,0.987721 0,0 0.369323,-0.118478 0.657618,0.407862 0.288295,0.526339 -0.115345,1.094623 -0.115345,1.094623 z"
       id="path21631" />
    <path
       style="fill:#b8b8b8;fill-opacity:0.2916227;stroke:none;stroke-width:0.264583px;stroke-linecap:butt;stroke-linejoin:miter;stroke-opacity:1"
       d="m 22.714899,9.4904361 c 0.522935,1.5956329 1.12431,2.5580239 0.104587,3.7127029 -1.019724,1.154679 -1.954742,1.618239 -3.557865,1.687963 -1.603123,0.06973 -3.876664,-0.174856 -4.432419,-0.718082 -0.555754,-0.543226 0.442725,-2.045439 0.572777,-3.201207 0.130053,-1.1557679 3.174243,-1.0485939 2.402778,-3.1154129 -0.771466,-2.066819 -1.54511,-2.766108 -0.01035,-3.289997 1.534759,-0.523888 2.166775,-0.891576 2.999522,-0.103769 0.832747,0.787807 -0.117797,2.562517 -0.244445,3.044734 -0.126648,0.482217 -0.126648,0.579587 -0.126648,0.579587 0,0 0.714678,0.888717 1.513243,1.201116 0.798565,0.312399 0.778819,0.202365 0.77882,0.202365 z"
       id="path21633" />
    <path
       style="fill:#b8b8b8;fill-opacity:0.2916227;stroke:none;stroke-width:0.264583px;stroke-linecap:butt;stroke-linejoin:miter;stroke-opacity:1"
       d="m 12.972238,14.77031 c 1.46272,0.754306 1.059761,1.346557 3.101795,1.137928 2.042033,-0.208629 2.866473,-0.667423 2.899701,0.305454 0.03323,0.972877 0.762069,1.629678 -0.620576,1.734265 -1.382646,0.104587 -2.066547,0.104996 -3.00783,-0.452802 -0.941283,-0.557797 -1.378288,-1.236387 -2.247122,0.07613 -0.868835,1.312513 -0.364966,2.074037 -1.460678,2.483125 -1.095712,0.409087 -1.8528793,-0.14408 -1.9221953,-0.939377 -0.06932,-0.795297 0.8727843,-2.589481 0.3853933,-3.251185 -0.4873923,-0.661703 -1.2009813,-1.376518 -1.4079763,-1.859551 -0.206995,-0.483035 0.367416,-1.300257 0.576046,-1.750335 0.208629,-0.450078 0.7724183,-0.201548 1.7041693,-0.166685 0.93175,0.03486 1.629269,0.49706 1.525091,1.401438 -0.104179,0.904378 0.474182,1.2816 0.474182,1.2816 z"
       id="path21635" />
    <path
       style="fill:#b8b8b8;fill-opacity:0.2916227;stroke:none;stroke-width:0.264583px;stroke-linecap:butt;stroke-linejoin:miter;stroke-opacity:1"
       d="m 6.9714217,15.011622 c 0.172542,1.005016 0.576318,0.892395 -0.469688,1.412061 -1.046006,0.519667 -2.149345,-0.344265 -2.703329,0.827845 -0.553984,1.172109 -0.356522,2.050068 -1.354865,1.67666 -0.998343,-0.373408 -1.72650201,-2.084795 -1.86595201,-2.810231 -0.139449,-0.725436 0.341678,-1.158356 0.86420501,-2.098277 0.522526,-0.939921 0.549218,-0.66075 2.336866,-1.089312 1.787648,-0.428562 2.636191,-1.436437 3.21251,-1.503302 0.576318,-0.06686 0.576318,-0.136589 0.750629,0.0029 0.174312,0.139449 0.864477,1.024762 -0.06809,1.57398 -0.932568,0.549218 -0.702286,2.007716 -0.702286,2.007716 z"
       id="path21637" />
    <path
       style="fill:#b8b8b8;fill-opacity:0.2916227;stroke:none;stroke-width:0.264583px;stroke-linecap:butt;stroke-linejoin:miter;stroke-opacity:1"
       d="m 12.505273,8.6560551 c 0.441908,-1.390272 0.04875,-2.276129 1.615924,-2.520166 1.567171,-0.244036 1.621507,-0.676547 1.691232,-1.966453 0.06973,-1.289907 -0.981593,-2.19088 -1.599991,-2.57137 -0.618397,-0.38049 -1.127987,-0.274677 -2.173993,0.770512 -1.046006,1.04519 -1.466669,1.248372 -0.59552,2.119385 0.87115,0.871014 1.639484,1.494178 0.593613,2.191425 -1.04587,0.697246 -1.624911,1.20098 -1.115458,1.641117 0.509453,0.440137 0.53846,0.469144 0.53846,0.469144 z"
       id="path21639" />
    <path
       style="fill:#b8b8b8;fill-opacity:0.2916227;stroke:none;stroke-width:0.264583px;stroke-linecap:butt;stroke-linejoin:miter;stroke-opacity:1"
       d="m 14.017737,11.694146 c -0.04911,0.436695 -0.443243,1.003677 -0.899294,0.522975 -0.456051,-0.480702 -0.480702,-0.530005 -0.480702,-0.530005 0,0 -0.07111,-0.626396 0.494953,-0.922886 0.566068,-0.296491 0.773197,-0.429137 0.945805,-0.02735 0.172608,0.401789 -0.06076,0.957264 -0.06076,0.957264 z"
       id="path21641" />
    <path
       style="fill:#b8b8b8;fill-opacity:0.2916227;stroke:none;stroke-width:0.264583px;stroke-linecap:butt;stroke-linejoin:miter;stroke-opacity:1"
       d="m 16.351868,8.9548081 c 0.17256,-0.599145 0.395867,-0.7991 0.02465,-1.116824 -0.371215,-0.317724 -0.401644,-0.854084 -1.077102,-0.218829 -0.675458,0.635255 -0.944504,0.623555 -0.957601,1.370367 -0.0131,0.746812 0.282625,0.888846 0.701843,0.605018 0.419218,-0.283828 1.308209,-0.639732 1.308209,-0.639732 z"
       id="path21643" />
    <path
       style="fill:#b8b8b8;fill-opacity:0.2916227;stroke:none;stroke-width:0.264583px;stroke-linecap:butt;stroke-linejoin:miter;stroke-opacity:1"
       d="m 12.473407,25.246714 c 0.557593,-0.742391 0.857191,-1.111101 0.611589,-1.93554 -0.245602,-0.82444 -0.508023,-1.19138 -0.926848,-1.365896 -0.418825,-0.174516 -0.575705,-0.209378 -0.575705,-0.209378 0,0 -0.384167,-2.331623 -1.150457,0 -0.7662913,2.331623 -1.1454873,2.868925 -1.7607533,3.499579 -0.615265,0.630654 -0.476905,0.746885 0.656802,0.922831 1.1337063,0.175946 1.8216933,-0.828526 2.3346183,-0.828526 0.512926,0 0.810754,-0.08307 0.810754,-0.08307 z"
       id="path21645" />
    <path
       style="fill:#b8b8b8;fill-opacity:0.2916227;stroke:none;stroke-width:0.264583px;stroke-linecap:butt;stroke-linejoin:miter;stroke-opacity:1"
       d="m 9.0424407,9.7374411 c -1.008685,-0.202122 -1.61043,-1.151201 -2.944686,-0.02061 -1.334257,1.1305939 -1.853573,1.7718189 -2.666106,1.3284789 -0.812533,-0.44334 -0.641129,-1.5887629 -0.788749,-2.8188289 -0.147619,-1.230066 0.01897,-0.831888 1.023322,-1.71722 1.004352,-0.885332 1.909328,-0.08195 2.90222,0.495339 0.992893,0.577286 2.055407,0.05835 2.154012,-0.631884 0.09861,-0.69024 0.09861,-0.69024 0.09861,-0.69024 0,0 0.479161,1.934942 0.79077,2.68421 0.311609,0.749268 -0.569389,1.370752 -0.569389,1.370752 z"
       id="path21647" />
    <path
       style="fill:#b8b8b8;fill-opacity:0.2916227;stroke:none;stroke-width:0.264583px;stroke-linecap:butt;stroke-linejoin:miter;stroke-opacity:1"
       d="m 1.7306057,8.5382861 c -0.471169,-1.189141 -0.250173,-2.273706 -0.86501301,-2.863895 -0.614841,-0.590189 -0.632271,-0.607618 -0.632271,-0.607618 0,0 -0.389028,-0.290714 0.89399901,-0.858466 1.283028,-0.567753 2.211115,-0.624566 2.06311,-1.450773 -0.148005,-0.826207 0.549553,-0.996841 1.140609,-0.256336 0.591055,0.740505 1.867343,1.461173 0.366496,1.868884 -1.500846,0.40771 -2.379918,0.0071 -2.552189,1.114223 -0.172271,1.107098 -0.414741,3.053981 -0.414741,3.053981 z"
       id="path21649" />
    <path
       style="fill:#b8b8b8;fill-opacity:0.2916227;stroke:none;stroke-width:0.264583px;stroke-linecap:butt;stroke-linejoin:miter;stroke-opacity:1"
       d="m 7.3009547,4.5675821 c 1.417455,-0.686291 2.601011,-0.981915 2.132634,-2.140531 -0.468376,-1.158616 -0.112376,-1.47398001 -1.03324,-1.025537 -0.920864,0.448444 -1.997148,0.743394 -2.364223,0.765735 -0.367074,0.02234 -0.367074,0.02234 -0.367074,0.02234 0,0 0.396926,0.903338 0.86405,1.588667 0.467125,0.685328 0.767853,0.789326 0.767853,0.789326 z"
       id="path21651" />
    <path
       style="fill:#b8b8b8;fill-opacity:0.2916227;stroke:none;stroke-width:0.264583px;stroke-linecap:butt;stroke-linejoin:miter;stroke-opacity:1"
       d="m 26.362067,18.838235 c 0.275788,-1.432669 0.151857,-3.122542 0.0044,-3.588896 -0.147427,-0.466354 0.22061,-4.155878 -0.719513,-2.421326 -0.940123,1.734553 -1.470321,3.364242 -2.308468,2.575397 -0.838147,-0.788845 -1.298243,0.909406 -0.985382,1.389145 0.312861,0.479739 1.091787,1.700561 2.2011,1.577304 1.109313,-0.123257 1.807833,0.468376 1.807833,0.468376 z"
       id="path21653" />
    <path
       style="fill:#b8b8b8;fill-opacity:0.2916227;stroke:none;stroke-width:0.264583px;stroke-linecap:butt;stroke-linejoin:miter;stroke-opacity:1"
       d="m 22.876302,7.4802021 c 0.500106,0.100002 0.896454,-0.09822 1.007385,-0.565442 0.110932,-0.467221 -0.01286,-0.632462 -0.445699,-0.966411 -0.432844,-0.33395 -0.686917,-0.203759 -1.040992,-0.09601 -0.354075,0.107758 -1.033384,0.739064 -0.403088,0.986589 0.630295,0.247525 0.882394,0.641274 0.882394,0.641274 z"
       id="path21655" />
    <path
       style="fill:#b8b8b8;fill-opacity:0.2916227;stroke:none;stroke-width:0.264583px;stroke-linecap:butt;stroke-linejoin:miter;stroke-opacity:1"
       d="m 24.256251,3.4134441 c 1.3578,-0.443003 1.755641,-0.245936 1.382307,-1.215718 -0.373333,-0.969782 0.363849,-0.291436 -1.835999,-0.653744 -2.199848,-0.362308 -2.334708,-0.74199701 -3.016185,-0.362308 -0.681476,0.379689 -1.508453,-0.27049101 -0.705886,0.699435 0.802566,0.969927 1.246965,0.861403 2.07322,0.745946 0.826255,-0.115457 1.15019,0.278243 1.501328,0.449839 0.351138,0.171597 0.601215,0.33655 0.601215,0.33655 z"
       id="path21657" />
  </g>
</svg>
